<svg xmlns="http://www.w3.org/2000/svg" xmlns:xlink="http://www.w3.org/1999/xlink" width="500" zoomAndPan="magnify" viewBox="0 0 375 374.999991" height="500" preserveAspectRatio="xMidYMid meet" version="1.0"><path fill="#f9f7ea" d="M 86.054688 256.351562 L 87.535156 256.351562 L 87.535156 296 L 89.386719 294.144531 L 90.292969 293.265625 C 91.40625 292.125 92.4375 290.921875 93.460938 289.699219 C 96.34375 290.90625 98.488281 293.914062 100.484375 296.246094 C 101.707031 297.640625 102.980469 298.992188 104.25 300.34375 C 105.296875 301.464844 106.328125 302.605469 107.335938 303.765625 C 108.625 305.246094 109.960938 306.683594 111.3125 308.109375 C 113.773438 310.726562 116.21875 313.359375 118.652344 316.007812 L 118.28125 316.75 C 116.078125 316.839844 113.878906 316.90625 111.679688 316.953125 C 110.929688 316.96875 110.183594 316.996094 109.4375 317.027344 C 103.40625 317.28125 103.40625 317.28125 101.65625 316.394531 C 100.398438 315.472656 99.519531 314.320312 98.648438 313.042969 C 98.238281 312.558594 97.820312 312.082031 97.398438 311.605469 L 96.789062 310.890625 C 95.65625 309.636719 94.449219 308.464844 93.246094 307.277344 C 91.953125 305.996094 90.734375 304.675781 89.574219 303.269531 C 88.953125 302.597656 88.273438 302.097656 87.535156 301.554688 L 87.542969 302.878906 C 87.546875 304.488281 87.554688 306.097656 87.554688 307.710938 C 87.558594 308.410156 87.5625 309.105469 87.5625 309.804688 C 87.570312 310.808594 87.570312 311.808594 87.570312 312.808594 L 87.578125 313.761719 C 87.578125 314.511719 87.558594 315.257812 87.535156 316.007812 L 87.164062 316.378906 C 86.179688 316.410156 85.199219 316.421875 84.210938 316.414062 L 83.316406 316.414062 C 82.371094 316.410156 81.421875 316.40625 80.476562 316.402344 C 79.832031 316.398438 79.191406 316.398438 78.550781 316.394531 C 76.976562 316.390625 75.40625 316.386719 73.832031 316.378906 C 73.457031 314.214844 73.414062 312.125 73.429688 309.933594 L 73.433594 308.785156 C 73.4375 307.964844 73.4375 307.144531 73.445312 306.324219 C 73.449219 305.023438 73.453125 303.722656 73.457031 302.421875 C 73.464844 298.722656 73.480469 295.023438 73.496094 291.324219 C 73.503906 289.058594 73.511719 286.792969 73.515625 284.527344 C 73.519531 283.667969 73.523438 282.808594 73.527344 281.949219 C 73.796875 274.835938 73.796875 274.835938 72.324219 267.960938 C 71.980469 267.097656 71.980469 267.097656 71.980469 265.984375 L 71.238281 265.984375 L 70.867188 264.503906 L 71.429688 264.308594 C 76.300781 262.5 80.988281 259.925781 85.183594 256.871094 Z M 269.039062 273.398438 L 269.777344 273.398438 L 269.777344 335.273438 L 256.074219 335.273438 L 256.050781 331.496094 C 256.027344 327.359375 256 323.21875 255.96875 319.078125 C 255.949219 316.570312 255.929688 314.0625 255.917969 311.558594 C 255.902344 309.132812 255.886719 306.707031 255.867188 304.285156 C 255.859375 303.363281 255.855469 302.445312 255.851562 301.523438 C 256.148438 292.808594 256.148438 292.808594 253.988281 284.535156 L 253.488281 283.691406 C 253.109375 283.03125 253.109375 283.03125 253.109375 282.289062 L 253.894531 281.910156 C 258.761719 279.558594 263.460938 277.179688 267.925781 274.117188 Z M 322.378906 273.765625 L 323.488281 273.765625 C 324.015625 274.820312 323.90625 275.710938 323.902344 276.890625 L 323.90625 277.640625 C 323.90625 278.472656 323.902344 279.304688 323.902344 280.136719 L 323.902344 281.921875 C 323.902344 283.539062 323.898438 285.160156 323.898438 286.777344 C 323.894531 288.46875 323.894531 290.160156 323.894531 291.851562 C 323.890625 295.054688 323.890625 298.257812 323.886719 301.460938 C 323.882812 305.105469 323.878906 308.753906 323.878906 312.398438 C 323.875 319.902344 323.867188 327.402344 323.859375 334.902344 C 322.417969 335.304688 321.046875 335.320312 319.558594 335.3125 L 318.742188 335.308594 C 317.886719 335.308594 317.03125 335.304688 316.171875 335.296875 C 315.589844 335.296875 315.007812 335.292969 314.425781 335.292969 C 313.003906 335.289062 311.578125 335.28125 310.152344 335.273438 L 310.148438 334.605469 C 310.121094 329.21875 310.085938 323.828125 310.046875 318.441406 C 310.027344 315.835938 310.011719 313.230469 309.996094 310.625 C 309.984375 308.105469 309.96875 305.589844 309.945312 303.070312 C 309.941406 302.113281 309.933594 301.15625 309.929688 300.199219 C 310.058594 290.945312 310.058594 290.945312 307.191406 282.289062 L 308.316406 281.730469 C 312.851562 279.480469 317.320312 277.253906 321.464844 274.324219 Z M 191.992188 255.609375 L 192.734375 255.609375 L 192.734375 316.378906 L 179.027344 316.007812 L 179.003906 312.058594 C 178.980469 307.746094 178.953125 303.429688 178.921875 299.117188 C 178.902344 296.5 178.886719 293.886719 178.871094 291.273438 C 178.859375 288.746094 178.839844 286.222656 178.820312 283.699219 C 178.8125 282.734375 178.808594 281.773438 178.804688 280.8125 C 178.796875 279.460938 178.789062 278.113281 178.777344 276.761719 L 178.773438 275.566406 C 178.734375 272.1875 178.492188 268.972656 176.804688 265.984375 L 176.804688 265.246094 L 175.695312 264.875 C 176.757812 264.339844 177.824219 263.816406 178.894531 263.300781 C 185.878906 260.128906 185.878906 260.128906 191.992188 255.609375 M 19.75 270.0625 C 21.277344 270.269531 22.5625 270.613281 23.972656 271.230469 L 25.121094 271.726562 C 25.527344 271.902344 25.929688 272.078125 26.347656 272.261719 C 29.644531 273.679688 32.945312 275.0625 36.28125 276.382812 C 55.796875 284.15625 55.796875 284.15625 60.539062 289.914062 C 63.203125 293.5625 64.714844 297.347656 65.566406 301.765625 C 65.71875 303.429688 65.707031 305.074219 65.679688 306.742188 C 62.46875 305.464844 59.261719 304.160156 56.058594 302.851562 C 53.824219 301.9375 51.585938 301.03125 49.347656 300.132812 C 35.222656 294.457031 35.222656 294.457031 30.863281 290.8125 L 29.914062 290.042969 C 25.746094 286.503906 22.859375 282.070312 20.953125 276.960938 C 20.257812 274.726562 20.03125 272.378906 19.75 270.0625 M 334.601562 274.136719 C 339.519531 274.613281 343.875 275.363281 348.058594 278.199219 C 351.003906 280.453125 353.351562 283.015625 354.972656 286.363281 L 355.4375 287.285156 C 357 291.035156 356.804688 295.347656 356.457031 299.332031 C 355.785156 302.992188 353.878906 306.179688 351.546875 309.035156 C 349.035156 311.777344 345.585938 313.980469 342.046875 315.125 C 341.265625 315.355469 340.480469 315.570312 339.695312 315.777344 L 338.9375 315.976562 C 337.375 316.355469 336.164062 316.382812 334.601562 316.007812 L 335.574219 315.035156 C 338.207031 311.953125 339.402344 307.699219 340.15625 303.78125 C 340.574219 301.214844 340.609375 298.683594 340.617188 296.09375 C 340.621094 295.292969 340.632812 294.496094 340.644531 293.699219 C 340.683594 288.464844 340.054688 283.277344 337.5625 278.582031 C 336.914062 277.566406 336.230469 276.574219 335.507812 275.605469 C 334.972656 274.878906 334.972656 274.878906 334.601562 274.136719 M 280.519531 274.136719 C 286.003906 274.714844 290.191406 275.628906 294.761719 278.894531 C 297.695312 281.078125 299.558594 283.898438 301.265625 287.105469 C 301.730469 288.183594 302.101562 289.296875 302.375 290.441406 L 302.628906 291.484375 C 303.035156 295.628906 302.664062 299.371094 301.101562 303.253906 C 299.496094 306.695312 297.574219 309.488281 294.484375 311.734375 C 291.449219 313.828125 288.261719 315.402344 284.59375 316.007812 C 284 316.03125 283.40625 316.039062 282.8125 316.03125 L 281.925781 316.019531 L 281.261719 316.007812 L 281.261719 314.894531 L 282.117188 314.058594 C 284.148438 311.988281 284.957031 308.875 285.710938 306.113281 C 286.300781 303.496094 286.707031 300.902344 286.816406 298.222656 L 286.847656 297.511719 C 287.082031 291.171875 286.367188 284.828125 283.855469 278.953125 C 282.9375 277.265625 282.128906 275.953125 280.519531 274.878906 Z M 231.257812 274.878906 C 233.453125 275.277344 235.003906 275.945312 236.789062 277.265625 L 237.464844 277.761719 C 240.460938 280.039062 242.550781 282.683594 244.035156 286.132812 C 244.996094 288.5 245.378906 290.445312 245.375 293 L 245.375 293.753906 C 245.375 294.574219 245.371094 295.394531 245.367188 296.214844 L 245.367188 297.925781 C 245.363281 299.425781 245.363281 300.921875 245.355469 302.417969 C 245.355469 303.949219 245.351562 305.480469 245.351562 307.007812 C 245.347656 310.007812 245.339844 313.007812 245.332031 316.007812 C 243.855469 316.421875 242.472656 316.390625 240.949219 316.332031 L 240.109375 316.304688 C 239.226562 316.277344 238.34375 316.246094 237.460938 316.214844 L 235.660156 316.15625 C 234.191406 316.109375 232.722656 316.058594 231.257812 316.007812 C 230.910156 314.964844 230.839844 314.335938 230.839844 313.257812 L 230.835938 312.246094 L 230.835938 309.964844 C 230.835938 308.6875 230.835938 307.40625 230.835938 306.128906 C 230.835938 305.242188 230.835938 304.355469 230.835938 303.46875 C 230.835938 301.609375 230.835938 299.75 230.835938 297.894531 C 230.839844 295.503906 230.839844 293.117188 230.835938 290.730469 C 230.835938 288.898438 230.835938 287.070312 230.835938 285.238281 C 230.835938 284.359375 230.835938 283.476562 230.835938 282.597656 C 230.835938 281.367188 230.835938 280.140625 230.835938 278.914062 L 230.835938 277.796875 L 230.839844 276.792969 L 230.839844 275.910156 L 230.886719 275.25 Z M 150.507812 274.878906 C 154.34375 275.003906 157.625 275.519531 160.996094 277.425781 C 164.277344 279.488281 166.761719 282.054688 168.667969 285.441406 C 170.324219 288.585938 171.167969 291.675781 171.25 295.257812 C 171.089844 298.925781 170.320312 302.347656 168.65625 305.632812 C 167.871094 306.820312 167 307.894531 166.0625 308.96875 L 165.386719 309.878906 C 163.296875 312.320312 160.046875 314.296875 157.03125 315.371094 C 155.140625 315.886719 153.210938 316.304688 151.246094 316.378906 L 150.136719 315.636719 L 150.945312 315.152344 C 153.035156 313.152344 153.8125 310.3125 154.648438 307.601562 C 156.789062 299.625 156.453125 291.546875 154.652344 283.550781 C 153.78125 280.363281 152.230469 277.667969 150.507812 274.878906 M 140.875 274.878906 L 140.46875 275.453125 C 136.84375 280.976562 135.59375 287.699219 135.214844 294.203125 C 135.066406 300.363281 136.089844 306.867188 138.894531 312.402344 C 139.28125 313.09375 139.675781 313.78125 140.082031 314.460938 C 140.503906 315.265625 140.503906 315.265625 140.503906 316.378906 C 137.421875 316.042969 134.71875 315.648438 131.984375 314.15625 L 131.042969 313.648438 C 130.242188 313.207031 129.445312 312.757812 128.652344 312.300781 L 128.652344 311.5625 L 128 311.269531 C 126.132812 310.257812 124.714844 308.628906 123.558594 306.871094 C 121.199219 302.679688 120.375 298.816406 120.425781 294.003906 C 120.640625 290.296875 121.851562 286.902344 123.835938 283.769531 C 126.511719 280.238281 129.578125 277.746094 133.667969 275.945312 C 136.023438 275.09375 138.378906 274.855469 140.875 274.878906 M 217.550781 295.234375 L 218.632812 295.238281 C 219.507812 295.242188 220.382812 295.25 221.253906 295.257812 L 221.253906 296 C 220.671875 296.398438 220.671875 296.398438 219.890625 296.832031 C 217.964844 297.996094 216.953125 299.238281 215.769531 301.164062 C 214.910156 303.378906 215.109375 305.90625 215.328125 308.226562 C 215.886719 310.519531 217.195312 312.179688 218.742188 313.921875 C 219.417969 314.539062 220.046875 314.902344 220.882812 315.265625 L 220.882812 316.007812 C 210.289062 316.273438 210.289062 316.273438 206.597656 314.417969 C 204.757812 313.28125 203.175781 311.902344 201.992188 310.078125 C 201.269531 308.339844 201.066406 306.621094 201.117188 304.746094 C 201.367188 302.957031 202.074219 301.550781 203.105469 300.074219 C 204.65625 298.273438 206.277344 297.066406 208.5 296.207031 C 211.464844 295.199219 214.457031 295.207031 217.550781 295.234375 M 51.234375 257.464844 C 53.882812 257.332031 56.160156 257.605469 58.644531 258.574219 C 61.167969 259.894531 63.539062 261.507812 65.3125 263.761719 C 66.125 265.179688 66.496094 266.386719 66.585938 268 C 66.523438 269.503906 66.171875 270.660156 65.4375 271.96875 C 64.367188 273.453125 63.027344 274.496094 61.445312 275.386719 C 59.5625 275.847656 58.050781 275.765625 56.210938 275.25 C 54.527344 274.269531 53.394531 273.191406 52.347656 271.542969 C 51.808594 270.296875 51.605469 269.199219 51.605469 267.839844 C 51.835938 266.597656 52.140625 265.394531 52.464844 264.175781 C 52.8125 262.589844 52.769531 261.25 52.347656 259.6875 C 51.820312 258.414062 51.820312 258.414062 51.234375 257.464844 M 20.121094 298.59375 L 20.863281 298.59375 L 21.125 299.164062 C 23.441406 303.785156 27.476562 307.363281 31.738281 310.167969 C 35.101562 312.3125 38.625 313.851562 42.34375 315.265625 L 42.34375 316.378906 C 39.453125 316.339844 36.5625 316.296875 33.671875 316.25 C 32.328125 316.230469 30.988281 316.210938 29.644531 316.195312 C 28.347656 316.175781 27.054688 316.15625 25.761719 316.136719 C 25.023438 316.125 24.289062 316.113281 23.550781 316.105469 L 22.203125 316.082031 L 21.007812 316.066406 L 20.121094 316.007812 L 19.75 315.636719 C 19.730469 315.101562 19.726562 314.566406 19.742188 314.03125 L 19.765625 312.996094 L 19.796875 311.871094 L 19.820312 310.726562 C 19.851562 309.515625 19.878906 308.304688 19.914062 307.089844 L 19.972656 304.632812 C 20.019531 302.621094 20.070312 300.605469 20.121094 298.59375 M 218.292969 274.136719 L 218.292969 274.878906 L 217.550781 274.878906 C 217.234375 277.464844 217.160156 279.40625 217.921875 281.917969 C 218.09375 283.6875 218.203125 285.460938 217.667969 287.175781 C 217.0625 288.347656 216.34375 289.035156 215.304688 289.839844 C 214.121094 290.496094 213.273438 290.792969 211.925781 290.925781 C 210.175781 290.785156 208.996094 290.308594 207.550781 289.328125 C 206.394531 288.222656 205.640625 287.203125 205.140625 285.695312 C 204.910156 284.519531 204.984375 283.625 205.304688 282.472656 C 206.058594 280.582031 207.125 279.171875 208.660156 277.84375 C 211.40625 275.9375 214.804688 273.800781 218.292969 274.136719 " fill-opacity="1" fill-rule="nonzero"/><path fill="#f9f7ea" d="M 111.984375 275.25 C 113.46875 275.753906 114.5 276.660156 115.640625 277.726562 C 116.484375 279.042969 116.761719 279.875 116.84375 281.414062 C 116.761719 282.972656 116.46875 284.265625 115.6875 285.625 C 114.605469 286.832031 113.449219 287.59375 111.917969 288.128906 C 111.011719 288.304688 110.308594 288.335938 109.390625 288.21875 C 107.074219 287.414062 105.28125 286.113281 103.464844 284.511719 C 102.378906 283.867188 101.476562 283.648438 100.222656 283.539062 L 99.324219 283.457031 L 98.648438 283.402344 C 99.6875 281.199219 101.042969 279.308594 102.980469 277.816406 C 105.886719 275.921875 108.472656 274.804688 111.984375 275.25 " fill-opacity="1" fill-rule="nonzero"/><path fill="#f9f7ea" d="M 205.476562 41.203125 C 203.746094 42.183594 201.671875 44.113281 200.867188 45.496094 C 198.996094 48.703125 198.796875 55.019531 200.511719 56.734375 C 202.445312 58.664062 207.589844 56.851562 210.3125 53.285156 C 213.941406 48.523438 213.726562 39.375 209.988281 39.410156 C 209.234375 39.417969 207.207031 40.222656 205.476562 41.203125 M 181.65625 42.320312 C 180.644531 43.332031 181.148438 43.929688 185.648438 47.03125 C 190.480469 50.355469 194.671875 56.003906 194.671875 59.179688 C 194.671875 60.9375 194.4375 61.066406 192.082031 60.59375 C 182.800781 58.734375 178.773438 59.445312 173.953125 63.800781 C 168.277344 68.925781 167.90625 74.859375 172.449219 87.746094 C 175.691406 96.941406 178.144531 101.699219 181.644531 105.574219 C 185.019531 109.304688 187.996094 110.253906 193.566406 109.378906 C 195.820312 109.027344 199.402344 109.066406 201.542969 109.46875 C 204.574219 110.039062 206.011719 109.925781 208.054688 108.960938 C 213.179688 106.535156 222.101562 91.1875 224.5625 80.5625 C 225.699219 75.636719 225.703125 74.703125 224.601562 70.898438 C 223.117188 65.792969 218.710938 61.441406 213.660156 60.078125 C 210.441406 59.210938 208.730469 59.28125 201.75 60.558594 C 198.960938 61.070312 198.851562 61.003906 198.355469 58.351562 C 197.566406 54.140625 193.660156 48.652344 188.890625 45.050781 C 184.734375 41.914062 182.792969 41.183594 181.65625 42.320312 M 209.21875 64.667969 C 207.429688 65.320312 208.179688 67.660156 210.625 69.050781 C 211.941406 69.800781 213.765625 71.679688 214.683594 73.234375 C 215.597656 74.785156 216.851562 76.054688 217.464844 76.054688 C 219.007812 76.054688 218.890625 72.441406 217.257812 69.679688 C 215.804688 67.214844 210.789062 64.089844 209.21875 64.667969 M 141.644531 115.804688 C 137.105469 117.871094 134.394531 121.4375 133.277344 126.820312 C 130.734375 139.074219 135.964844 148.222656 146.082031 149.195312 C 149.578125 149.53125 150.046875 149.792969 150.046875 151.410156 L 150.046875 153.242188 L 133.507812 153.5 C 114.605469 153.792969 113.050781 154.253906 109.378906 160.691406 C 107.714844 163.601562 107.429688 165.128906 107.453125 170.890625 C 107.484375 178.800781 109.195312 182.773438 113.96875 186.042969 L 116.855469 188.023438 L 176.996094 188.023438 C 234.15625 188.023438 237.179688 187.953125 238.019531 186.582031 C 239.269531 184.546875 236.746094 182.84375 232.484375 182.84375 L 229.160156 182.84375 L 227.753906 178.371094 C 226.144531 173.261719 226.40625 166.714844 228.410156 161.921875 C 229.554688 159.179688 229.917969 158.9375 232.828125 158.9375 C 236.738281 158.9375 238.882812 157.148438 237.679688 154.894531 C 236.886719 153.414062 235.660156 153.355469 205.402344 153.355469 L 173.953125 153.355469 L 173.953125 149.304688 L 218.269531 149.449219 C 255.289062 149.566406 262.699219 149.410156 263.292969 148.484375 C 264.46875 146.660156 263.714844 145.003906 261.605469 144.773438 C 255.480469 144.113281 254.792969 143.796875 253.789062 141.199219 C 252.003906 136.578125 251.730469 129.363281 253.15625 124.464844 L 254.464844 119.96875 L 258.636719 119.730469 C 262.6875 119.496094 262.808594 119.417969 262.808594 117.097656 L 262.808594 114.707031 L 203.839844 114.523438 C 148.058594 114.347656 144.691406 114.417969 141.644531 115.804688 M 144.734375 130.699219 C 144.011719 132.582031 145.253906 133.3125 149.648438 133.585938 L 153.632812 133.832031 L 153.859375 141.5 L 154.085938 149.171875 L 157.984375 147.09375 L 161.882812 145.011719 L 165.546875 146.792969 C 167.566406 147.773438 169.371094 148.574219 169.5625 148.574219 C 169.753906 148.574219 170.011719 145.257812 170.136719 141.203125 L 170.367188 133.832031 L 185.871094 133.617188 C 201.40625 133.398438 203.070312 133.082031 202.085938 130.519531 C 201.753906 129.652344 196.3125 129.449219 173.445312 129.449219 C 148.546875 129.449219 145.15625 129.597656 144.734375 130.699219 M 220.453125 130.671875 C 219.5625 132.992188 221.386719 133.496094 229.808594 133.265625 C 237.5 133.050781 238.105469 132.917969 238.105469 131.441406 C 238.105469 129.960938 237.5 129.832031 229.523438 129.621094 C 222.253906 129.429688 220.867188 129.589844 220.453125 130.671875 M 158.015625 151.167969 L 155.226562 152.957031 L 158.613281 153.203125 C 160.476562 153.339844 163.523438 153.339844 165.386719 153.203125 L 168.773438 152.957031 L 165.984375 151.167969 C 164.449219 150.183594 162.65625 149.378906 162 149.378906 C 161.34375 149.378906 159.550781 150.183594 158.015625 151.167969 M 172.558594 169.097656 C 156.289062 169.316406 155.625 169.390625 155.625 170.90625 C 155.625 172.484375 156.992188 172.683594 167.976562 172.683594 C 207.28125 172.683594 213.117188 172.476562 212.855469 171.089844 C 212.546875 169.464844 206.402344 168.628906 195.867188 168.773438 C 192.363281 168.824219 181.875 168.96875 172.558594 169.097656 M 120.160156 170.09375 C 119.085938 171.835938 120.933594 172.484375 126.980469 172.484375 C 132.777344 172.484375 133.308594 172.351562 133.308594 170.890625 C 133.308594 169.429688 132.777344 169.296875 126.980469 169.296875 C 123.5 169.296875 120.433594 169.65625 120.160156 170.09375 M 142.476562 192.453125 C 135.1875 194.609375 131.285156 203.726562 133.207031 214.121094 C 134.792969 222.695312 139.957031 226.675781 149.5 226.675781 L 154.828125 226.675781 L 154.828125 230.5625 C 154.828125 236.375 156.085938 236.867188 161.203125 233.050781 C 165.78125 229.636719 165.21875 229.597656 170.230469 233.628906 C 174.050781 236.703125 175.425781 236.109375 175.707031 231.257812 L 175.945312 227.074219 L 219.292969 226.675781 C 260.007812 226.300781 262.691406 226.1875 263.519531 224.835938 C 264.6875 222.933594 262.191406 220.964844 258.824219 221.136719 C 254.699219 221.34375 254.515625 221.199219 253.171875 216.570312 C 251.667969 211.394531 251.960938 204.835938 253.910156 200.175781 C 255.039062 197.472656 255.445312 197.1875 258.1875 197.175781 C 262.085938 197.160156 263.414062 196.273438 263.078125 193.910156 L 262.8125 192.007812 L 203.839844 191.878906 C 171.402344 191.804688 143.789062 192.066406 142.476562 192.453125 M 144.46875 209.058594 C 144.46875 211.097656 145.953125 211.53125 152.902344 211.53125 L 158.8125 211.53125 L 158.8125 220.699219 C 158.8125 225.738281 159.113281 229.863281 159.484375 229.863281 C 159.855469 229.863281 160.800781 229.152344 161.582031 228.289062 C 163.914062 225.714844 165.71875 225.59375 168.636719 227.820312 C 170.109375 228.941406 171.511719 229.863281 171.753906 229.863281 C 171.996094 229.863281 172.242188 225.84375 172.304688 220.9375 C 172.363281 216.027344 172.496094 211.929688 172.59375 211.832031 C 172.691406 211.734375 175.921875 211.554688 179.769531 211.433594 C 186.621094 211.21875 189.101562 210.289062 187.921875 208.378906 C 187.585938 207.835938 179.992188 207.546875 165.9375 207.546875 C 145.402344 207.546875 144.46875 207.613281 144.46875 209.058594 M 211.667969 208.824219 C 210.8125 211.046875 213.101562 211.507812 225.058594 211.519531 C 234.304688 211.53125 236.914062 211.292969 237.679688 210.371094 C 239.664062 207.976562 237.71875 207.546875 224.886719 207.546875 C 213.949219 207.546875 212.085938 207.726562 211.667969 208.824219 " fill-opacity="1" fill-rule="evenodd"/></svg>